# File created by Blade
# Date/Time:  Fri Jan 16 19:00:24 2015
# Frame Rate: 120.000 fps
#------------------------------------------------------
:FULLY-SPECIFIED
:DEGREES
1819
root 16.185911 36.565504 -22.793261 -162.981112 30.918207 -156.372869
Spine -10.165341 26.221393 18.174715
Head 10.891323 2.544195 1.679485
LeftShoulder -16.101977 -25.862968 13.030662
LeftArm -10.299676 -8.997918 -7.818141
LeftForeArm -4.013145 -0.000000 4.201316
LeftHand -4.465526 -0.000000 0.775714
LeftHandThumb1 -26.253704 0.000000 33.147579
RightShoulder -7.585373 -10.191023 -0.588168
RightArm 20.289079 38.544426 36.170531
RightForeArm -32.699090 -0.000000 41.776110
RightHand -11.911658 -0.000000 0.945269
RightHandThumb1 -24.326973 -0.000000 -32.862282
LeftUpLeg -0.429315 28.613951 5.184365
LeftLeg -7.275038 -0.000000 0.000000
LeftFoot -23.103553 33.115968 -13.276500
LeftToeBase 19.299988 -0.000000 -0.000000
RightUpLeg -55.278670 -49.963813 -6.602603
RightLeg 107.071156 -0.000000 -0.000000
RightFoot 30.221088 -42.307792 -15.419981
RightToeBase 23.948617 -0.000000 -0.000000
1820
root 16.196626 36.573502 -22.814375 -162.733857 31.184791 -156.138163
Spine -10.198715 26.415032 18.261168
Head 10.911598 2.647753 1.702155
LeftShoulder -16.131876 -25.927396 13.122892
LeftArm -10.456950 -8.918612 -7.695119
LeftForeArm -4.079657 -0.000000 4.201520
LeftHand -4.468632 0.000000 0.705742
LeftHandThumb1 -26.253704 0.000000 33.147579
RightShoulder -7.638874 -10.252373 -0.564862
RightArm 20.207366 38.494009 36.073851
RightForeArm -32.729254 0.000000 41.724903
RightHand -12.084365 -0.000000 0.861550
RightHandThumb1 -24.326973 -0.000000 -32.862282
LeftUpLeg -0.533598 28.894872 5.285453
LeftLeg -7.120473 -0.000000 0.000000
LeftFoot -23.186871 33.115120 -13.216614
LeftToeBase 19.262448 -0.000000 -0.000000
RightUpLeg -54.879713 -49.882336 -6.898116
RightLeg 106.956449 -0.000000 -0.000000
RightFoot 30.315196 -42.196538 -15.508616
RightToeBase 23.820008 -0.000000 -0.000000
1821
root 16.205305 36.579766 -22.837313 -162.526058 31.458247 -155.931483
Spine -10.188409 26.616162 18.329039
Head 10.876736 2.718627 1.701933
LeftShoulder -16.164343 -25.922950 13.217397
LeftArm -10.584783 -8.963513 -7.612508
LeftForeArm -4.074592 -0.000000 4.194029
LeftHand -4.437191 -0.000000 0.675375
LeftHandThumb1 -26.253704 0.000000 33.147579
RightShoulder -7.684420 -10.270220 -0.524226
RightArm 20.027456 38.501219 35.891207
RightForeArm -32.827059 0.000000 41.631286
RightHand -11.829882 -0.000000 0.946428
RightHandThumb1 -24.326973 -0.000000 -32.862282
LeftUpLeg -0.514928 28.870965 5.390698
LeftLeg -7.115074 -0.000000 0.000000
LeftFoot -23.270153 33.376993 -13.301802
LeftToeBase 19.082247 -0.000000 -0.000000
RightUpLeg -54.459498 -49.765369 -7.234660
RightLeg 106.857471 -0.000000 -0.000000
RightFoot 30.250796 -42.151819 -15.450018
RightToeBase 23.651724 -0.000000 -0.000000
1822
root 16.213103 36.583634 -22.858679 -162.330251 31.700555 -155.728017
Spine -10.170240 26.766498 18.420210
Head 10.843835 2.850443 1.738698
LeftShoulder -16.227964 -25.845802 13.315706
LeftArm -10.657432 -9.076243 -7.569731
LeftForeArm -4.102878 0.000000 4.143905
LeftHand -4.469626 0.000000 0.765168
LeftHandThumb1 -26.253704 0.000000 33.147579
RightShoulder -7.710162 -10.331990 -0.519884
RightArm 19.890654 38.491917 35.754989
RightForeArm -32.857664 -0.000000 41.551948
RightHand -11.887743 -0.000000 0.965155
RightHandThumb1 -24.326973 -0.000000 -32.862282
LeftUpLeg -0.489945 28.861852 5.492778
LeftLeg -7.133878 -0.000000 0.000000
LeftFoot -23.358934 33.628407 -13.364914
LeftToeBase 18.994247 -0.000000 -0.000000
RightUpLeg -54.031178 -49.655825 -7.552819
RightLeg 106.757179 -0.000000 -0.000000
RightFoot 30.234965 -42.071195 -15.492152
RightToeBase 23.591270 -0.000000 -0.000000
1823
root 16.223775 36.585846 -22.881037 -162.160175 31.945903 -155.533388
Spine -10.126106 26.921741 18.495724
Head 10.781479 2.958456 1.799317
LeftShoulder -16.212988 -25.985428 13.434364
LeftArm -10.874976 -8.951483 -7.446470
LeftForeArm -4.162437 0.000000 4.158712
LeftHand -4.517480 -0.000000 0.736302
LeftHandThumb1 -26.253704 0.000000 33.147579
RightShoulder -7.774142 -10.381428 -0.505977
RightArm 19.734665 38.478994 35.609660
RightForeArm -32.830560 -0.000000 41.493822
RightHand -11.999662 -0.000000 0.842861
RightHandThumb1 -24.326973 -0.000000 -32.862282
LeftUpLeg -0.499670 29.121162 5.582112
LeftLeg -7.055331 -0.000000 0.000000
LeftFoot -23.445064 33.653991 -13.317288
LeftToeBase 18.945029 -0.000000 -0.000000
RightUpLeg -53.581389 -49.522419 -7.876149
RightLeg 106.661777 -0.000000 -0.000000
RightFoot 30.214365 -42.009596 -15.527012
RightToeBase 23.618129 -0.000000 -0.000000
